<svg xmlns="http://www.w3.org/2000/svg" width="600" height="214" viewBox="0 0 600 214" font-family="Arial, Helvetica, sans-serif"><rect width="600" height="214" fill="#ffffff"/><rect x="211.0" y="18" width="40" height="40" fill="#f1f5f9" stroke="#94a3b8" stroke-width="1.5" stroke-dasharray="5 4"/><rect x="254.0" y="15" width="46" height="46" fill="#bde0fe" stroke="#1f2937" stroke-width="2"/><rect x="300.0" y="15" width="46" height="46" fill="#bde0fe" stroke="#1f2937" stroke-width="2"/><rect x="346.0" y="15" width="46" height="46" fill="#bde0fe" stroke="#1f2937" stroke-width="2"/><rect x="208.0" y="61" width="46" height="46" fill="#bde0fe" stroke="#1f2937" stroke-width="2"/><rect x="254.0" y="61" width="46" height="46" fill="#bde0fe" stroke="#1f2937" stroke-width="2"/><rect x="303.0" y="64" width="40" height="40" fill="#f1f5f9" stroke="#94a3b8" stroke-width="1.5" stroke-dasharray="5 4"/><rect x="346.0" y="61" width="46" height="46" fill="#bde0fe" stroke="#1f2937" stroke-width="2"/><rect x="208.0" y="107" width="46" height="46" fill="#bde0fe" stroke="#1f2937" stroke-width="2"/><rect x="257.0" y="110" width="40" height="40" fill="#f1f5f9" stroke="#94a3b8" stroke-width="1.5" stroke-dasharray="5 4"/><rect x="300.0" y="107" width="46" height="46" fill="#bde0fe" stroke="#1f2937" stroke-width="2"/><rect x="346.0" y="107" width="46" height="46" fill="#bde0fe" stroke="#1f2937" stroke-width="2"/><rect x="208.0" y="153" width="46" height="46" fill="#bde0fe" stroke="#1f2937" stroke-width="2"/><rect x="257.0" y="156" width="40" height="40" fill="#f1f5f9" stroke="#94a3b8" stroke-width="1.5" stroke-dasharray="5 4"/><rect x="300.0" y="153" width="46" height="46" fill="#bde0fe" stroke="#1f2937" stroke-width="2"/><rect x="349.0" y="156" width="40" height="40" fill="#f1f5f9" stroke="#94a3b8" stroke-width="1.5" stroke-dasharray="5 4"/></svg>