<svg xmlns="http://www.w3.org/2000/svg" width="600" height="165" viewBox="0 0 600 165" font-family="Arial, Helvetica, sans-serif"><rect width="600" height="165" fill="#ffffff"/><rect x="230.0" y="12" width="28" height="28" fill="#fb8500" stroke="#1f2937" stroke-width="2"/><rect x="258.0" y="12" width="28" height="28" fill="#fb8500" stroke="#1f2937" stroke-width="2"/><rect x="286.0" y="12" width="28" height="28" fill="#fb8500" stroke="#1f2937" stroke-width="2"/><rect x="314.0" y="12" width="28" height="28" fill="#fb8500" stroke="#1f2937" stroke-width="2"/><rect x="342.0" y="12" width="28" height="28" fill="#fb8500" stroke="#1f2937" stroke-width="2"/><rect x="230.0" y="40" width="28" height="28" fill="#fb8500" stroke="#1f2937" stroke-width="2"/><rect x="258.0" y="40" width="28" height="28" fill="#d9d9d9" stroke="#1f2937" stroke-width="2"/><rect x="286.0" y="40" width="28" height="28" fill="#d9d9d9" stroke="#1f2937" stroke-width="2"/><rect x="314.0" y="40" width="28" height="28" fill="#d9d9d9" stroke="#1f2937" stroke-width="2"/><rect x="342.0" y="40" width="28" height="28" fill="#fb8500" stroke="#1f2937" stroke-width="2"/><rect x="230.0" y="68" width="28" height="28" fill="#fb8500" stroke="#1f2937" stroke-width="2"/><rect x="258.0" y="68" width="28" height="28" fill="#d9d9d9" stroke="#1f2937" stroke-width="2"/><rect x="286.0" y="68" width="28" height="28" fill="#d9d9d9" stroke="#1f2937" stroke-width="2"/><rect x="314.0" y="68" width="28" height="28" fill="#d9d9d9" stroke="#1f2937" stroke-width="2"/><rect x="342.0" y="68" width="28" height="28" fill="#fb8500" stroke="#1f2937" stroke-width="2"/><rect x="230.0" y="96" width="28" height="28" fill="#fb8500" stroke="#1f2937" stroke-width="2"/><rect x="258.0" y="96" width="28" height="28" fill="#d9d9d9" stroke="#1f2937" stroke-width="2"/><rect x="286.0" y="96" width="28" height="28" fill="#d9d9d9" stroke="#1f2937" stroke-width="2"/><rect x="314.0" y="96" width="28" height="28" fill="#d9d9d9" stroke="#1f2937" stroke-width="2"/><rect x="342.0" y="96" width="28" height="28" fill="#fb8500" stroke="#1f2937" stroke-width="2"/><rect x="230.0" y="124" width="28" height="28" fill="#fb8500" stroke="#1f2937" stroke-width="2"/><rect x="258.0" y="124" width="28" height="28" fill="#fb8500" stroke="#1f2937" stroke-width="2"/><rect x="286.0" y="124" width="28" height="28" fill="#fb8500" stroke="#1f2937" stroke-width="2"/><rect x="314.0" y="124" width="28" height="28" fill="#fb8500" stroke="#1f2937" stroke-width="2"/><rect x="342.0" y="124" width="28" height="28" fill="#fb8500" stroke="#1f2937" stroke-width="2"/></svg>