<svg xmlns="http://www.w3.org/2000/svg" width="600" height="245" viewBox="0 0 600 245" font-family="Arial, Helvetica, sans-serif"><rect width="600" height="245" fill="#ffffff"/><polygon points="100.0,70.0 80.0,215.0 120.0,215.0" fill="#adb5bd" stroke="#1f2937" stroke-width="2" stroke-linejoin="round"/><line x1="38.0" y1="70.0" x2="162.0" y2="70.0" stroke="#1f2937" stroke-width="5" stroke-linecap="round"/><line x1="38.0" y1="70.0" x2="12.0" y2="150.0" stroke="#1f2937" stroke-width="1.5" stroke-linecap="round"/><line x1="38.0" y1="70.0" x2="64.0" y2="150.0" stroke="#1f2937" stroke-width="1.5" stroke-linecap="round"/><line x1="8.0" y1="150.0" x2="68.0" y2="150.0" stroke="#1f2937" stroke-width="4" stroke-linecap="round"/><rect x="31.4" y="132.4" width="13.2" height="13.2" fill="#3a86ff" stroke="#1f2937" stroke-width="2" transform="rotate(0 38.0 139.0)"/><line x1="162.0" y1="70.0" x2="136.0" y2="150.0" stroke="#1f2937" stroke-width="1.5" stroke-linecap="round"/><line x1="162.0" y1="70.0" x2="188.0" y2="150.0" stroke="#1f2937" stroke-width="1.5" stroke-linecap="round"/><line x1="132.0" y1="150.0" x2="192.0" y2="150.0" stroke="#1f2937" stroke-width="4" stroke-linecap="round"/><circle cx="143.0" cy="139.0" r="8.5" fill="#e63946" stroke="#1f2937" stroke-width="2"/><circle cx="162.0" cy="139.0" r="8.5" fill="#e63946" stroke="#1f2937" stroke-width="2"/><circle cx="181.0" cy="139.0" r="8.5" fill="#e63946" stroke="#1f2937" stroke-width="2"/><circle cx="162.0" cy="119.0" r="8.5" fill="#e63946" stroke="#1f2937" stroke-width="2"/><text x="100.0" y="232.0" font-size="15" text-anchor="middle" font-weight="normal" fill="#1f2937" dominant-baseline="middle">Cân 1</text><polygon points="300.0,70.0 280.0,215.0 320.0,215.0" fill="#adb5bd" stroke="#1f2937" stroke-width="2" stroke-linejoin="round"/><line x1="238.0" y1="70.0" x2="362.0" y2="70.0" stroke="#1f2937" stroke-width="5" stroke-linecap="round"/><line x1="238.0" y1="70.0" x2="212.0" y2="150.0" stroke="#1f2937" stroke-width="1.5" stroke-linecap="round"/><line x1="238.0" y1="70.0" x2="264.0" y2="150.0" stroke="#1f2937" stroke-width="1.5" stroke-linecap="round"/><line x1="208.0" y1="150.0" x2="268.0" y2="150.0" stroke="#1f2937" stroke-width="4" stroke-linecap="round"/><polygon points="238.0,130.9 246.1,145.0 229.9,145.0" fill="#2a9d8f" stroke="#1f2937" stroke-width="2" stroke-linejoin="round"/><line x1="362.0" y1="70.0" x2="336.0" y2="150.0" stroke="#1f2937" stroke-width="1.5" stroke-linecap="round"/><line x1="362.0" y1="70.0" x2="388.0" y2="150.0" stroke="#1f2937" stroke-width="1.5" stroke-linecap="round"/><line x1="332.0" y1="150.0" x2="392.0" y2="150.0" stroke="#1f2937" stroke-width="4" stroke-linecap="round"/><rect x="345.9" y="132.4" width="13.2" height="13.2" fill="#3a86ff" stroke="#1f2937" stroke-width="2" transform="rotate(0 352.5 139.0)"/><rect x="364.9" y="132.4" width="13.2" height="13.2" fill="#3a86ff" stroke="#1f2937" stroke-width="2" transform="rotate(0 371.5 139.0)"/><text x="300.0" y="232.0" font-size="15" text-anchor="middle" font-weight="normal" fill="#1f2937" dominant-baseline="middle">Cân 2</text><polygon points="500.0,70.0 480.0,215.0 520.0,215.0" fill="#adb5bd" stroke="#1f2937" stroke-width="2" stroke-linejoin="round"/><line x1="438.0" y1="70.0" x2="562.0" y2="70.0" stroke="#1f2937" stroke-width="5" stroke-linecap="round"/><line x1="438.0" y1="70.0" x2="412.0" y2="150.0" stroke="#1f2937" stroke-width="1.5" stroke-linecap="round"/><line x1="438.0" y1="70.0" x2="464.0" y2="150.0" stroke="#1f2937" stroke-width="1.5" stroke-linecap="round"/><line x1="408.0" y1="150.0" x2="468.0" y2="150.0" stroke="#1f2937" stroke-width="4" stroke-linecap="round"/><polygon points="438.0,130.9 446.1,145.0 429.9,145.0" fill="#2a9d8f" stroke="#1f2937" stroke-width="2" stroke-linejoin="round"/><line x1="562.0" y1="70.0" x2="536.0" y2="150.0" stroke="#1f2937" stroke-width="1.5" stroke-linecap="round"/><line x1="562.0" y1="70.0" x2="588.0" y2="150.0" stroke="#1f2937" stroke-width="1.5" stroke-linecap="round"/><line x1="532.0" y1="150.0" x2="592.0" y2="150.0" stroke="#1f2937" stroke-width="4" stroke-linecap="round"/><text x="562.0" y="130.0" font-size="32" text-anchor="middle" font-weight="bold" fill="#e63946" dominant-baseline="middle">?</text><text x="500.0" y="232.0" font-size="15" text-anchor="middle" font-weight="normal" fill="#1f2937" dominant-baseline="middle">Cân 3</text></svg>