<svg xmlns="http://www.w3.org/2000/svg" width="600" height="184" viewBox="0 0 600 184" font-family="Arial, Helvetica, sans-serif"><rect width="600" height="184" fill="#ffffff"/><circle cx="41.9" cy="43.5" r="23.5" fill="#8338ec" stroke="#1f2937" stroke-width="2"/><polygon points="141.2,51.4 107.2,71.1 107.2,31.8" fill="#8338ec" stroke="#1f2937" stroke-width="2" stroke-linejoin="round"/><polygon points="191.4,29.5 213.9,68.5 168.9,68.5" fill="#e63946" stroke="#1f2937" stroke-width="2" stroke-linejoin="round"/><polygon points="241.6,38.6 277.5,59.3 241.6,80.1" fill="#ff70a6" stroke="#1f2937" stroke-width="2" stroke-linejoin="round"/><circle cx="330.2" cy="51.5" r="18.6" fill="#3a86ff" stroke="#1f2937" stroke-width="2"/><polygon points="393.6,36.0 427.7,55.7 393.6,75.4" fill="#2a9d8f" stroke="#1f2937" stroke-width="2" stroke-linejoin="round"/><polygon points="496.0,37.8 499.9,82.9 459.0,63.8" fill="#8338ec" stroke="#1f2937" stroke-width="2" stroke-linejoin="round"/><polygon points="567.3,48.6 535.4,67.0 535.4,30.2" fill="#e63946" stroke="#1f2937" stroke-width="2" stroke-linejoin="round"/><polygon points="49.3,107.8 71.9,147.0 26.6,147.0" fill="#ffbe0b" stroke="#1f2937" stroke-width="2" stroke-linejoin="round"/><rect x="111.2" y="124.4" width="26.4" height="26.4" fill="#3a86ff" stroke="#1f2937" stroke-width="2" transform="rotate(0 124.3 137.6)"/><circle cx="188.5" cy="139.7" r="20.2" fill="#e63946" stroke="#1f2937" stroke-width="2"/><circle cx="263.1" cy="136.5" r="19.2" fill="#e63946" stroke="#1f2937" stroke-width="2"/><rect x="312.4" y="121.6" width="35.7" height="35.7" fill="#e63946" stroke="#1f2937" stroke-width="2" transform="rotate(180 330.3 139.4)"/><circle cx="400.9" cy="125.6" r="17.5" fill="#ff70a6" stroke="#1f2937" stroke-width="2"/><rect x="455.9" y="117.0" width="31.9" height="31.9" fill="#3a86ff" stroke="#1f2937" stroke-width="2" transform="rotate(180 471.8 132.9)"/><rect x="532.1" y="114.5" width="31.2" height="31.2" fill="#3a86ff" stroke="#1f2937" stroke-width="2" transform="rotate(0 547.7 130.1)"/></svg>