<svg xmlns="http://www.w3.org/2000/svg" width="600" height="260" viewBox="0 0 600 260" font-family="Arial, Helvetica, sans-serif"><rect width="600" height="260" fill="#ffffff"/><rect x="185.0" y="15" width="46" height="46" fill="#bde0fe" stroke="#1f2937" stroke-width="2"/><rect x="234.0" y="18" width="40" height="40" fill="#f1f5f9" stroke="#94a3b8" stroke-width="1.5" stroke-dasharray="5 4"/><rect x="277.0" y="15" width="46" height="46" fill="#bde0fe" stroke="#1f2937" stroke-width="2"/><rect x="323.0" y="15" width="46" height="46" fill="#bde0fe" stroke="#1f2937" stroke-width="2"/><rect x="372.0" y="18" width="40" height="40" fill="#f1f5f9" stroke="#94a3b8" stroke-width="1.5" stroke-dasharray="5 4"/><rect x="185.0" y="61" width="46" height="46" fill="#bde0fe" stroke="#1f2937" stroke-width="2"/><rect x="231.0" y="61" width="46" height="46" fill="#bde0fe" stroke="#1f2937" stroke-width="2"/><rect x="277.0" y="61" width="46" height="46" fill="#bde0fe" stroke="#1f2937" stroke-width="2"/><rect x="326.0" y="64" width="40" height="40" fill="#f1f5f9" stroke="#94a3b8" stroke-width="1.5" stroke-dasharray="5 4"/><rect x="369.0" y="61" width="46" height="46" fill="#bde0fe" stroke="#1f2937" stroke-width="2"/><rect x="185.0" y="107" width="46" height="46" fill="#bde0fe" stroke="#1f2937" stroke-width="2"/><rect x="231.0" y="107" width="46" height="46" fill="#bde0fe" stroke="#1f2937" stroke-width="2"/><rect x="280.0" y="110" width="40" height="40" fill="#f1f5f9" stroke="#94a3b8" stroke-width="1.5" stroke-dasharray="5 4"/><rect x="323.0" y="107" width="46" height="46" fill="#bde0fe" stroke="#1f2937" stroke-width="2"/><rect x="369.0" y="107" width="46" height="46" fill="#bde0fe" stroke="#1f2937" stroke-width="2"/><rect x="188.0" y="156" width="40" height="40" fill="#f1f5f9" stroke="#94a3b8" stroke-width="1.5" stroke-dasharray="5 4"/><rect x="231.0" y="153" width="46" height="46" fill="#bde0fe" stroke="#1f2937" stroke-width="2"/><rect x="277.0" y="153" width="46" height="46" fill="#bde0fe" stroke="#1f2937" stroke-width="2"/><rect x="323.0" y="153" width="46" height="46" fill="#bde0fe" stroke="#1f2937" stroke-width="2"/><rect x="369.0" y="153" width="46" height="46" fill="#bde0fe" stroke="#1f2937" stroke-width="2"/><rect x="185.0" y="199" width="46" height="46" fill="#bde0fe" stroke="#1f2937" stroke-width="2"/><rect x="231.0" y="199" width="46" height="46" fill="#bde0fe" stroke="#1f2937" stroke-width="2"/><rect x="280.0" y="202" width="40" height="40" fill="#f1f5f9" stroke="#94a3b8" stroke-width="1.5" stroke-dasharray="5 4"/><rect x="323.0" y="199" width="46" height="46" fill="#bde0fe" stroke="#1f2937" stroke-width="2"/><rect x="372.0" y="202" width="40" height="40" fill="#f1f5f9" stroke="#94a3b8" stroke-width="1.5" stroke-dasharray="5 4"/></svg>