<svg xmlns="http://www.w3.org/2000/svg" width="600" height="266" viewBox="0 0 600 266" font-family="Arial, Helvetica, sans-serif"><rect width="600" height="266" fill="#ffffff"/><polygon points="52.9,25.5 51.7,40.2 64.8,47.0 50.4,50.4 48.0,65.0 40.3,52.4 25.7,54.6 35.4,43.4 28.7,30.2 42.4,35.9" fill="#8338ec" stroke="#1f2937" stroke-width="2" stroke-linejoin="round"/><polygon points="111.7,31.6 132.6,67.9 90.8,67.9" fill="#e63946" stroke="#1f2937" stroke-width="2" stroke-linejoin="round"/><polygon points="193.5,72.4 170.7,33.0 216.4,33.0" fill="#ff70a6" stroke="#1f2937" stroke-width="2" stroke-linejoin="round"/><polygon points="254.2,23.8 260.0,39.7 276.9,40.4 263.7,50.8 268.2,67.1 254.2,57.7 240.1,67.1 244.7,50.8 231.4,40.4 248.3,39.7" fill="#fb8500" stroke="#1f2937" stroke-width="2" stroke-linejoin="round"/><polygon points="327.0,35.2 348.4,72.4 305.5,72.4" fill="#3a86ff" stroke="#1f2937" stroke-width="2" stroke-linejoin="round"/><polygon points="401.3,65.4 396.4,52.3 382.4,51.7 393.4,43.1 389.6,29.6 401.3,37.3 412.9,29.6 409.1,43.1 420.1,51.7 406.1,52.3" fill="#fb8500" stroke="#1f2937" stroke-width="2" stroke-linejoin="round"/><path d="M 476.0,69.6 C 454.1,54.7 464.6,38.2 476.0,48.6 C 487.3,38.2 497.8,54.7 476.0,69.6 Z" fill="#ffbe0b" stroke="#1f2937" stroke-width="2"/><polygon points="533.3,29.7 561.6,46.1 533.3,62.4" fill="#8338ec" stroke="#1f2937" stroke-width="2" stroke-linejoin="round"/><polygon points="41.0,113.5 70.2,130.3 41.0,147.2" fill="#e63946" stroke="#1f2937" stroke-width="2" stroke-linejoin="round"/><path d="M 124.1,148.5 C 97.6,130.4 110.3,110.2 124.1,123.0 C 137.9,110.2 150.7,130.4 124.1,148.5 Z" fill="#2a9d8f" stroke="#1f2937" stroke-width="2"/><polygon points="181.4,148.0 175.6,132.3 158.8,131.6 172.0,121.2 167.5,105.0 181.4,114.3 195.4,105.0 190.9,121.2 204.1,131.6 187.3,132.3" fill="#3a86ff" stroke="#1f2937" stroke-width="2" stroke-linejoin="round"/><path d="M 265.9,154.8 C 237.5,135.5 251.1,113.8 265.9,127.5 C 280.7,113.8 294.4,135.5 265.9,154.8 Z" fill="#8338ec" stroke="#1f2937" stroke-width="2"/><path d="M 340.8,155.8 C 310.6,135.3 325.1,112.3 340.8,126.8 C 356.5,112.3 371.0,135.3 340.8,155.8 Z" fill="#ffbe0b" stroke="#1f2937" stroke-width="2"/><polygon points="406.7,158.0 400.0,139.9 380.7,139.1 395.9,127.2 390.7,108.6 406.7,119.3 422.8,108.6 417.6,127.2 432.8,139.1 413.5,139.9" fill="#3a86ff" stroke="#1f2937" stroke-width="2" stroke-linejoin="round"/><polygon points="463.1,113.4 477.1,125.0 493.3,116.6 486.5,133.5 499.6,146.2 481.4,145.1 473.3,161.4 468.8,143.7 450.8,141.1 466.2,131.4" fill="#ffbe0b" stroke="#1f2937" stroke-width="2" stroke-linejoin="round"/><path d="M 542.3,152.8 C 515.7,134.7 528.5,114.4 542.3,127.2 C 556.2,114.4 569.0,134.7 542.3,152.8 Z" fill="#8338ec" stroke="#1f2937" stroke-width="2"/><polygon points="30.6,204.6 63.0,223.3 30.6,242.0" fill="#fb8500" stroke="#1f2937" stroke-width="2" stroke-linejoin="round"/></svg>