<svg xmlns="http://www.w3.org/2000/svg" width="600" height="264" viewBox="0 0 600 264" font-family="Arial, Helvetica, sans-serif"><rect width="600" height="264" fill="#ffffff"/><rect x="168.0" y="30" width="44" height="44" fill="#ffffff" stroke="#1f2937" stroke-width="2"/><rect x="212.0" y="30" width="44" height="44" fill="#ffffff" stroke="#1f2937" stroke-width="2"/><rect x="256.0" y="30" width="44" height="44" fill="#ffffff" stroke="#1f2937" stroke-width="2"/><rect x="300.0" y="30" width="44" height="44" fill="#ffffff" stroke="#1f2937" stroke-width="2"/><rect x="344.0" y="30" width="44" height="44" fill="#ffffff" stroke="#1f2937" stroke-width="2"/><rect x="388.0" y="30" width="44" height="44" fill="#ffffff" stroke="#1f2937" stroke-width="2"/><rect x="168.0" y="74" width="44" height="44" fill="#ffffff" stroke="#1f2937" stroke-width="2"/><rect x="212.0" y="74" width="44" height="44" fill="#ffffff" stroke="#1f2937" stroke-width="2"/><rect x="256.0" y="74" width="44" height="44" fill="#ffffff" stroke="#1f2937" stroke-width="2"/><rect x="300.0" y="74" width="44" height="44" fill="#ffffff" stroke="#1f2937" stroke-width="2"/><rect x="344.0" y="74" width="44" height="44" fill="#ffffff" stroke="#1f2937" stroke-width="2"/><rect x="388.0" y="74" width="44" height="44" fill="#ffffff" stroke="#1f2937" stroke-width="2"/><rect x="168.0" y="118" width="44" height="44" fill="#ffffff" stroke="#1f2937" stroke-width="2"/><rect x="212.0" y="118" width="44" height="44" fill="#ffffff" stroke="#1f2937" stroke-width="2"/><rect x="256.0" y="118" width="44" height="44" fill="#ffffff" stroke="#1f2937" stroke-width="2"/><rect x="300.0" y="118" width="44" height="44" fill="#ffffff" stroke="#1f2937" stroke-width="2"/><rect x="344.0" y="118" width="44" height="44" fill="#ffffff" stroke="#1f2937" stroke-width="2"/><rect x="388.0" y="118" width="44" height="44" fill="#ffffff" stroke="#1f2937" stroke-width="2"/><rect x="168.0" y="162" width="44" height="44" fill="#ffffff" stroke="#1f2937" stroke-width="2"/><rect x="212.0" y="162" width="44" height="44" fill="#ffffff" stroke="#1f2937" stroke-width="2"/><rect x="256.0" y="162" width="44" height="44" fill="#ffffff" stroke="#1f2937" stroke-width="2"/><rect x="300.0" y="162" width="44" height="44" fill="#ffffff" stroke="#1f2937" stroke-width="2"/><rect x="344.0" y="162" width="44" height="44" fill="#ffffff" stroke="#1f2937" stroke-width="2"/><rect x="388.0" y="162" width="44" height="44" fill="#ffffff" stroke="#1f2937" stroke-width="2"/><rect x="168.0" y="206" width="44" height="44" fill="#ffffff" stroke="#1f2937" stroke-width="2"/><rect x="212.0" y="206" width="44" height="44" fill="#ffffff" stroke="#1f2937" stroke-width="2"/><rect x="256.0" y="206" width="44" height="44" fill="#ffffff" stroke="#1f2937" stroke-width="2"/><rect x="300.0" y="206" width="44" height="44" fill="#ffffff" stroke="#1f2937" stroke-width="2"/><rect x="344.0" y="206" width="44" height="44" fill="#ffffff" stroke="#1f2937" stroke-width="2"/><rect x="388.0" y="206" width="44" height="44" fill="#ffffff" stroke="#1f2937" stroke-width="2"/><text x="190.0" y="14.0" font-size="18" text-anchor="middle" font-weight="bold" fill="#1f2937" dominant-baseline="middle">A</text><text x="234.0" y="14.0" font-size="18" text-anchor="middle" font-weight="bold" fill="#1f2937" dominant-baseline="middle">B</text><text x="278.0" y="14.0" font-size="18" text-anchor="middle" font-weight="bold" fill="#1f2937" dominant-baseline="middle">C</text><text x="322.0" y="14.0" font-size="18" text-anchor="middle" font-weight="bold" fill="#1f2937" dominant-baseline="middle">D</text><text x="366.0" y="14.0" font-size="18" text-anchor="middle" font-weight="bold" fill="#1f2937" dominant-baseline="middle">E</text><text x="410.0" y="14.0" font-size="18" text-anchor="middle" font-weight="bold" fill="#1f2937" dominant-baseline="middle">F</text><text x="152.0" y="52.0" font-size="18" text-anchor="middle" font-weight="bold" fill="#1f2937" dominant-baseline="middle">1</text><text x="152.0" y="96.0" font-size="18" text-anchor="middle" font-weight="bold" fill="#1f2937" dominant-baseline="middle">2</text><text x="152.0" y="140.0" font-size="18" text-anchor="middle" font-weight="bold" fill="#1f2937" dominant-baseline="middle">3</text><text x="152.0" y="184.0" font-size="18" text-anchor="middle" font-weight="bold" fill="#1f2937" dominant-baseline="middle">4</text><text x="152.0" y="228.0" font-size="18" text-anchor="middle" font-weight="bold" fill="#1f2937" dominant-baseline="middle">5</text></svg>